<svg width="80" height="80" viewBox="0 0 80 80" fill="none" xmlns="http://www.w3.org/2000/svg">
<rect width="80" height="80" fill="#1B3764"/>
<path d="M45.5569 21.4932L25 46.8998H37.0002L34.0461 63.1404C34.0405 63.1723 34.0419 63.205 34.0503 63.2362C34.0587 63.2675 34.0738 63.2965 34.0947 63.3213C34.1155 63.346 34.1415 63.3659 34.1708 63.3796C34.2002 63.3932 34.2322 63.4002 34.2645 63.4001C34.299 63.4001 34.3329 63.392 34.3637 63.3765C34.3944 63.3611 34.4211 63.3387 34.4417 63.311L55.0005 37.8997H43.0003L45.9685 21.6572C45.9725 21.6249 45.9695 21.592 45.9598 21.5609C45.9502 21.5298 45.934 21.5011 45.9123 21.4767C45.8907 21.4523 45.8641 21.4328 45.8343 21.4195C45.8046 21.4061 45.7723 21.3993 45.7397 21.3994C45.704 21.3996 45.6689 21.4081 45.6371 21.4244C45.6053 21.4407 45.5778 21.4643 45.5569 21.4932Z" stroke="white" stroke-width="2" stroke-linecap="round" stroke-linejoin="round"/>
</svg>
