<svg width="80" height="80" viewBox="0 0 80 80" fill="none" xmlns="http://www.w3.org/2000/svg">
<rect width="80" height="80" fill="#1B3764"/>
<path d="M59 48.7789V31.8808C58.9993 31.3277 58.8538 30.7844 58.5779 30.3051C58.302 29.8257 57.9054 29.427 57.4276 29.1485L42.3859 20.3947C41.6612 19.9728 40.8376 19.7505 39.999 19.7505C39.1604 19.7505 38.3368 19.9728 37.6121 20.3947L22.5724 29.1485C22.0946 29.427 21.698 29.8257 21.4221 30.3051C21.1462 30.7844 21.0007 31.3277 21 31.8808V48.7789C21.0003 49.3323 21.1457 49.876 21.4216 50.3557C21.6975 50.8354 22.0943 51.2345 22.5724 51.5131L37.6141 60.267C38.339 60.6883 39.1625 60.9102 40.001 60.9102C40.8394 60.9102 41.663 60.6883 42.3879 60.267L57.4295 51.5131C57.9073 51.2343 58.3037 50.8351 58.5793 50.3554C58.8548 49.8756 58.9999 49.3321 59 48.7789Z" stroke="white" stroke-width="2" stroke-linecap="round" stroke-linejoin="round"/>
<path d="M39.9997 41.1215V60.9132M39.9997 41.1215L21.9893 30.6824M39.9997 41.1215L58.7028 30.6824" stroke="white" stroke-width="2" stroke-linecap="round" stroke-linejoin="round"/>
</svg>
